<svg xmlns="http://www.w3.org/2000/svg" preserveAspectRatio="xMidYMid" width="12" height="16" viewBox="0 0 12 16"><defs><style>.cls-1 { fill-rule: evenodd; }</style></defs><path d="M11 16H1c-.552 0-1-.448-1-1V3c0-.552.448-1 1-1h1.278C2.106 2.295 2 2.634 2 3H1v12h10V3h-1c0-.366-.106-.705-.278-1H11c.552 0 1 .448 1 1v12c0 .552-.448 1-1 1zm-8-5h6v1H3v-1zm0-2h6v1H3V9zm0-2h6v1H3V7zm5-3H4c-.552 0-1-.448-1-1s.448-1 1-1h1V1c0-.552.448-1 1-1s1 .448 1 1v1h1c.552 0 1 .448 1 1s-.448 1-1 1z" class="cls-1"/></svg>