<svg xmlns="http://www.w3.org/2000/svg" preserveAspectRatio="xMidYMid" width="22" height="22" viewBox="0 0 22 22"><defs><style>.cls-1 { fill: #fff; fill-rule: evenodd; }</style></defs><path d="M16.656 16.666c-1.51 1.507-3.52 2.336-5.656 2.336-2.137 0-4.146-.83-5.657-2.336C3.833 15.16 3 13.156 3 11.026s.832-4.134 2.343-5.64c.39-.39 1.024-.39 1.414 0 .39.39.39 1.02 0 1.41C5.624 7.926 5 9.428 5 11.026c0 1.598.624 3.1 1.757 4.23 1.134 1.13 2.64 1.752 4.243 1.752 1.603 0 3.108-.622 4.242-1.752S17 12.624 17 11.026c0-1.598-.624-3.1-1.758-4.23-.39-.39-.39-1.02 0-1.41.39-.39 1.024-.39 1.414 0C18.168 6.892 19 8.896 19 11.026s-.832 4.133-2.344 5.64zM11 10.5c-.552 0-1-.448-1-1V4c0-.552.448-1 1-1s1 .448 1 1v5.5c0 .552-.448 1-1 1z" class="cls-1" id="artboard-1"/></svg>