<svg xmlns="http://www.w3.org/2000/svg" preserveAspectRatio="xMidYMid" width="22" height="22" viewBox="0 0 22 22"><defs><style>.cls-1 { fill: #fff; fill-rule: evenodd; }</style></defs><path d="M16.468 12.65c-1.557 2.595-5.657 4.243-5.657 4.243l-5.656-5.657S6.83 7.12 9.397 5.58c4.122-2.474 9.9-2.83 9.9-2.83s-.36 5.787-2.83 9.9zM14.346 7.7c-.78-.78-2.047-.78-2.828 0-.78.782-.78 2.048 0 2.83.78.78 2.047.78 2.828 0 .78-.782.78-2.048 0-2.83zM3.85 11.348L1.618 9.115l3.885-1.06c-.875 1.394-1.38 2.615-1.418 2.71l-.235.582zM8 16l-4 2 2-4 2 2zm6.006.49l-1.074 3.94-2.266-2.268.58-.23c.096-.04 1.345-.55 2.76-1.443z" class="cls-1" id="artboard-1"/></svg>