<svg xmlns="http://www.w3.org/2000/svg" preserveAspectRatio="xMidYMid" width="22" height="22" viewBox="0 0 22 22"><defs><style>.cls-1 { fill: #fff; fill-rule: evenodd; }</style></defs><path d="M20 12l-3.177 1.412 1.248 3.245-1.413 1.414-3.245-1.247L12 20h-2l-1.412-3.177-3.245 1.248-1.414-1.413 1.247-3.245L2 12v-2l3.177-1.412L3.93 5.343 5.342 3.93l3.245 1.247L10 2h2l1.412 3.177 3.245-1.248 1.414 1.413-1.247 3.245L20 10v2zm-9-4c-1.657 0-3 1.343-3 3s1.343 3 3 3 3-1.343 3-3-1.343-3-3-3z" class="cls-1" id="artboard-1"/></svg>