<?xml version="1.0" encoding="UTF-8" standalone="no"?>
<svg width="200px" height="200px" viewBox="0 0 200 200" version="1.1" xmlns="http://www.w3.org/2000/svg" xmlns:xlink="http://www.w3.org/1999/xlink" xmlns:sketch="http://www.bohemiancoding.com/sketch/ns">
    <!-- Generator: Sketch 3.3.2 (12043) - http://www.bohemiancoding.com/sketch -->
    <title>Home Pillars - Users</title>
    <desc>Created with Sketch.</desc>
    <defs>
        <rect id="path-1" x="2.29133858" y="0" width="91.6535433" height="93.9448819" rx="18"></rect>
        <path id="path-3" d="M69.7479094,16.873704 C69.7479094,16.873704 75.0060255,18.2532011 77.6350835,18.9429496 C86.049913,21.1506286 102.879572,25.5659866 102.879572,25.5659866 C106.38571,26.8259306 109.231771,29.5372185 110.710967,32.9947913 L110.710967,46.3375229 L0,46.3375229 L0,32.9947913 C1.47919663,29.5372185 4.32525704,26.8259306 7.83139543,25.5659866 C7.83139543,25.5659866 24.6681093,21.1487777 33.0864663,18.9401733 C35.7119968,18.2513502 40.9630579,16.873704 40.9630579,16.873704 L40.9630579,6.27377864e-16 L69.7479094,1.25475573e-16 L69.7479094,16.873704 Z"></path>
        <rect id="path-5" x="0" y="0" width="34.3203999" height="5.65091743"></rect>
        <rect id="path-7" x="2.29133858" y="0" width="91.6535433" height="93.9448819" rx="18"></rect>
        <path id="path-9" d="M69.7479094,16.873704 C69.7479094,16.873704 75.0060255,18.2532011 77.6350835,18.9429496 C86.049913,21.1506286 102.879572,25.5659866 102.879572,25.5659866 C106.38571,26.8259306 109.231771,29.5372185 110.710967,32.9947913 L110.710967,46.3375229 L0,46.3375229 L0,32.9947913 C1.47919663,29.5372185 4.32525704,26.8259306 7.83139543,25.5659866 C7.83139543,25.5659866 24.6681093,21.1487777 33.0864663,18.9401733 C35.7119968,18.2513502 40.9630579,16.873704 40.9630579,16.873704 L40.9630579,6.27377864e-16 L69.7479094,1.25475573e-16 L69.7479094,16.873704 Z"></path>
    </defs>
    <g id="Page-1" stroke="none" stroke-width="1" fill="none" fill-rule="evenodd" sketch:type="MSPage">
        <g id="Home-Pillars---Users" sketch:type="MSArtboardGroup">
            <circle id="Icon-Backgrond" fill="#70CBA1" sketch:type="MSShapeGroup" cx="100" cy="100" r="100"></circle>
            <path d="M199.42916,110.747919 L143.887302,55.2060608 L56.2060608,142.887302 L112.540081,199.221322 C158.337558,193.491687 194.508951,156.792186 199.42916,110.747919 Z" id="Rectangle-84" fill="#72B596" sketch:type="MSShapeGroup"></path>
            <g id="boy" sketch:type="MSLayerGroup" transform="translate(52.000000, 53.000000)">
                <mask id="mask-2" sketch:name="Mask" fill="white">
                    <use xlink:href="#path-1"></use>
                </mask>
                <use id="Mask" stroke="#FFFFFF" stroke-width="4" fill="#DCDCDC" sketch:type="MSShapeGroup" xlink:href="#path-1"></use>
                <g id="body" mask="url(#mask-2)">
                    <g transform="translate(-7.637795, 59.574803)">
                        <mask id="mask-4" sketch:name="shoulders" fill="white">
                            <use xlink:href="#path-3"></use>
                        </mask>
                        <use id="shoulders" stroke="none" fill="#E6C19C" fill-rule="evenodd" sketch:type="MSShapeGroup" xlink:href="#path-3"></use>
                        <path d="M-4.3586995,-1.13018349 L110.710967,-1.13018349 L110.710967,46.3375229 L4.1636477,50.1827957 L-4.3586995,-1.13018349 Z M55.3554837,35.0356881 C70.3338991,34.8259861 78.6047868,18.0829358 78.6047868,18.0829358 C78.6047868,18.0829358 67.5842795,-1.13018349 55.3554837,-1.13018349 C43.1266879,-1.13018349 32.1061805,18.0829358 32.1061805,18.0829358 C32.1061805,18.0829358 40.3770682,35.2453901 55.3554837,35.0356881 Z" id="shirt" stroke="none" fill="#8EBF1D" fill-rule="evenodd" sketch:type="MSShapeGroup" mask="url(#mask-4)"></path>
                        <path d="M55.3554837,36.1640847 C73.1410199,35.9150822 82.9619634,16.0341991 82.9619634,16.0341991 C82.9619634,16.0341991 69.8760911,-6.77967129 55.3554837,-6.77967129 C40.8348763,-6.77967129 27.7490039,16.0341991 27.7490039,16.0341991 C27.7490039,16.0341991 37.5699475,36.4130872 55.3554837,36.1640847 Z M55.3554837,31.6443038 C68.702426,31.6826632 78.3955955,15.7519361 78.3955955,15.7519361 C78.3955955,15.7519361 67.4742479,-2.25941389 55.3554837,-2.25941389 C43.2367195,-2.25941389 32.3153718,15.7519361 32.3153718,15.7519361 C32.3153718,15.7519361 42.0085414,31.6059443 55.3554837,31.6443038 Z" id="lace" stroke="none" fill="#70A619" fill-rule="evenodd" sketch:type="MSShapeGroup" mask="url(#mask-4)"></path>
                        <path d="M55.5749188,-54.2486593 C55.6393727,-54.2487612 55.7032293,-54.2488073 55.7664673,-54.2488073 C55.772845,-54.2488073 55.7792128,-54.248579 55.7855708,-54.248123 C59.4367256,-54.2351619 64.8612646,-54.0182274 68.4270208,-51.9524672 C72.1261945,-49.8094138 76.5585328,-45.6063199 77.8370586,-38.2407417 C80.5271382,-22.743211 75.5167332,1.7203938 70.8467826,9.68235302 C66.3786348,17.3002518 59.9759228,20.1002117 55.8939706,20.3279758 C55.8610717,20.3381654 55.8278664,20.3433028 55.7943539,20.3433028 C55.7220789,20.3433028 55.6489246,20.3424382 55.5749188,20.3406943 C55.500913,20.3424382 55.4277586,20.3433028 55.3554837,20.3433028 C55.3219712,20.3433028 55.2887659,20.3381654 55.255867,20.3279758 C51.1739148,20.1002117 44.7712028,17.3002518 40.303055,9.68235302 C35.6331044,1.7203938 30.6226993,-22.743211 33.312779,-38.2407417 C34.5913047,-45.6063199 39.023643,-49.8094138 42.7228168,-51.9524672 C46.2885729,-54.0182274 51.713112,-54.2351619 55.3642668,-54.248123 C55.3706248,-54.248579 55.3769926,-54.2488073 55.3833703,-54.2488073 C55.4466083,-54.2488073 55.5104649,-54.2487612 55.5749188,-54.2486593 L55.5749188,-54.2486593 Z" id="head-shadow" stroke="none" fill="#D4B08C" fill-rule="evenodd" sketch:type="MSShapeGroup" mask="url(#mask-4)"></path>
                    </g>
                </g>
                <path d="M48.0023221,15.2757256 C69.1020554,15.3267715 70.9259206,29.7447556 71.0493765,31.1632539 C72.2240417,44.6600651 67.7194429,59.4752909 63.493621,65.8067369 C59.0254732,72.501254 52.6227612,74.9618249 48.540809,75.1619812 C48.3689173,75.1754503 48.295763,75.1746905 48.2217572,75.173158 C48.1477514,75.1746905 48.074597,75.1754503 48.0023221,75.1754503 C43.8207532,74.9618249 37.4180412,72.501254 32.9498934,65.8067369 C28.7107801,59.4553768 24.1911335,44.5454233 25.4053905,31.0360406 C25.5288001,29.6630303 26.9025887,15.2246797 48.0023221,15.2757256 Z" id="head" fill="#F2CEA5" sketch:type="MSShapeGroup" mask="url(#mask-2)"></path>
                <g id="face" mask="url(#mask-2)">
                    <g transform="translate(31.314961, 38.952756)">
                        <path d="M17.7704963,23.745876 C13.8375886,23.745876 11.5165761,22.6036705 11.5165761,22.6036705 C11.1717662,22.6030076 11.0679573,23.0356632 11.134277,23.3894909 C11.5165761,25.4291284 13.6693557,28.2545872 17.7298155,28.2545872 C21.7902753,28.2545872 23.9123172,25.4291284 24.2773848,23.442136 C24.3424492,23.0880029 24.2696425,22.628186 23.9123167,22.6274991 C23.9123167,22.6274991 21.703404,23.7458761 17.7704963,23.745876 Z" id="mouth" fill="#A3705F" sketch:type="MSShapeGroup"></path>
                        <g id="eyes-narrowed" stroke-width="1" fill="none" sketch:type="MSLayerGroup" transform="translate(0.000000, 3.390550)">
                            <mask id="mask-6" sketch:name="Rectangle 5" fill="white">
                                <use xlink:href="#path-5"></use>
                            </mask>
                            <use id="Rectangle-5" sketch:type="MSShapeGroup" xlink:href="#path-5"></use>
                            <ellipse id="Oval-3" fill="#291F21" sketch:type="MSShapeGroup" mask="url(#mask-6)" cx="27.6777418" cy="4.52073394" rx="2.21421935" ry="2.26036697"></ellipse>
                            <ellipse id="Oval-3" fill="#291F21" sketch:type="MSShapeGroup" mask="url(#mask-6)" cx="7.74976771" cy="4.52073394" rx="2.21421935" ry="2.26036697"></ellipse>
                        </g>
                        <g id="brows" stroke-width="1" fill="none" sketch:type="MSLayerGroup" transform="translate(2.214219, 0.000000)">
                            <path d="M11.9702427,3.81436927 C10.8741266,1.95925171 9.02944805,1.14704422 7.2004273,1.13073533 C4.38108265,1.10559599 1.63866236,1.77223116 1.53052911e-15,3.51307881" id="Path-16" stroke="#CC9872" stroke-width="2" sketch:type="MSShapeGroup" transform="translate(5.985121, 2.472211) scale(-1, 1) translate(-5.985121, -2.472211) "></path>
                            <path d="M30.7690537,3.81436927 C29.6729377,1.95925171 27.8282591,1.14704422 25.9992383,1.13073533 C22.1157056,1.09610691 18.3781287,2.37404754 17.4702231,5.96409083 C16.5623175,9.55413413 15.4995354,15.8225688 15.4995354,15.8225688" id="Path-16" stroke="#BB8660" stroke-width="2" sketch:type="MSShapeGroup"></path>
                        </g>
                    </g>
                </g>
                <g id="hair" mask="url(#mask-2)" sketch:type="MSShapeGroup">
                    <g transform="translate(21.385827, 9.929134)" id="Path-5">
                        <path d="M36.1243066,35.8896719 C36.1243066,35.8896719 35.30384,32.0122541 33.2724722,30.916699 C31.8293915,24.7349044 31.7650026,22.5989669 31.7715493,21.5838557 C31.7924968,18.3358199 32.0869783,15.109582 33.8984648,12.4678884 C35.9061387,9.54009471 40.1515668,7.88396796 42.3657861,7.88396796 C44.940299,9.43780932 50.8885623,13.0443134 52.7954836,15.2128464 C53.7771769,16.3292187 52.358897,17.2023253 52.358897,17.2023253 C52.358897,17.2023253 47.3154124,10.411705 46.9407898,14.1515749 C46.5661673,17.8914447 36.1243067,27.224564 36.1243067,27.224564 L36.1243066,35.8896719 Z" fill="#452228" transform="translate(42.456407, 21.886820) scale(-1, 1) translate(-42.456407, -21.886820) "></path>
                        <path d="M0.503286584,24.4572995 C0.500456538,25.6072863 1.30800953,29.71306 1.84395846,31.4068476 C3.69716782,32.0439851 4.45735971,36.2436818 4.45735971,36.2436818 L4.45735977,27.213527 C11.0827192,25.3193108 18.6781511,21.4089201 22.9930678,15.5372637 C24.3272214,19.5911347 22.8903574,22.4199045 22.8903574,22.4199045 C22.8903574,22.4199045 30.3295013,22.615543 35.8924091,18.2976044 C39.26126,15.6826966 43.1772773,7.9112844 43.1772773,7.9112844 C43.1772773,7.9112844 41.1836149,-0.964629214 26.5706322,0.24667579 C20.3864351,0.759298639 17.401299,4.68132154 7.30378848,3.67530372 C7.30378848,3.67530372 8.2528014,6.19223234 9.39205247,7.6563309 C4.90712148,9.75711661 0.525240234,15.5364525 0.503286584,24.4572995 Z" fill="#6B363E"></path>
                    </g>
                </g>
            </g>
            <g id="boy-dark" sketch:type="MSLayerGroup" transform="translate(52.000000, 53.000000)">
                <mask id="mask-8" sketch:name="Mask" fill="white">
                    <use xlink:href="#path-7"></use>
                </mask>
                <use id="Mask" stroke="#FFFFFF" stroke-width="4" fill="#DCDCDC" sketch:type="MSShapeGroup" xlink:href="#path-7"></use>
                <g id="body" mask="url(#mask-8)">
                    <g transform="translate(-7.637795, 59.574803)">
                        <mask id="mask-10" sketch:name="shoulders" fill="white">
                            <use xlink:href="#path-9"></use>
                        </mask>
                        <use id="shoulders" stroke="none" fill="#979797" fill-rule="evenodd" sketch:type="MSShapeGroup" xlink:href="#path-9"></use>
                        <path d="M-4.3586995,-1.13018349 L110.710967,-1.13018349 L110.710967,46.3375229 L4.1636477,50.1827957 L-4.3586995,-1.13018349 Z M55.3554837,35.0356881 C70.3338991,34.8259861 78.6047868,18.0829358 78.6047868,18.0829358 C78.6047868,18.0829358 67.5842795,-1.13018349 55.3554837,-1.13018349 C43.1266879,-1.13018349 32.1061805,18.0829358 32.1061805,18.0829358 C32.1061805,18.0829358 40.3770682,35.2453901 55.3554837,35.0356881 Z" id="shirt" stroke="none" fill="#979797" fill-rule="evenodd" sketch:type="MSShapeGroup" mask="url(#mask-10)"></path>
                        <path d="M55.3554837,36.1640847 C73.1410199,35.9150822 82.9619634,16.0341991 82.9619634,16.0341991 C82.9619634,16.0341991 69.8760911,-6.77967129 55.3554837,-6.77967129 C40.8348763,-6.77967129 27.7490039,16.0341991 27.7490039,16.0341991 C27.7490039,16.0341991 37.5699475,36.4130872 55.3554837,36.1640847 Z M55.3554837,31.6443038 C68.702426,31.6826632 78.3955955,15.7519361 78.3955955,15.7519361 C78.3955955,15.7519361 67.4742479,-2.25941389 55.3554837,-2.25941389 C43.2367195,-2.25941389 32.3153718,15.7519361 32.3153718,15.7519361 C32.3153718,15.7519361 42.0085414,31.6059443 55.3554837,31.6443038 Z" id="lace" stroke="none" fill="#979797" fill-rule="evenodd" sketch:type="MSShapeGroup" mask="url(#mask-10)"></path>
                        <path d="M55.5749188,-54.2486593 C55.6393727,-54.2487612 55.7032293,-54.2488073 55.7664673,-54.2488073 C55.772845,-54.2488073 55.7792128,-54.248579 55.7855708,-54.248123 C59.4367256,-54.2351619 64.8612646,-54.0182274 68.4270208,-51.9524672 C72.1261945,-49.8094138 76.5585328,-45.6063199 77.8370586,-38.2407417 C80.5271382,-22.743211 75.5167332,1.7203938 70.8467826,9.68235302 C66.3786348,17.3002518 59.9759228,20.1002117 55.8939706,20.3279758 C55.8610717,20.3381654 55.8278664,20.3433028 55.7943539,20.3433028 C55.7220789,20.3433028 55.6489246,20.3424382 55.5749188,20.3406943 C55.500913,20.3424382 55.4277586,20.3433028 55.3554837,20.3433028 C55.3219712,20.3433028 55.2887659,20.3381654 55.255867,20.3279758 C51.1739148,20.1002117 44.7712028,17.3002518 40.303055,9.68235302 C35.6331044,1.7203938 30.6226993,-22.743211 33.312779,-38.2407417 C34.5913047,-45.6063199 39.023643,-49.8094138 42.7228168,-51.9524672 C46.2885729,-54.0182274 51.713112,-54.2351619 55.3642668,-54.248123 C55.3706248,-54.248579 55.3769926,-54.2488073 55.3833703,-54.2488073 C55.4466083,-54.2488073 55.5104649,-54.2487612 55.5749188,-54.2486593 L55.5749188,-54.2486593 Z" id="head-shadow" stroke="none" fill="#979797" fill-rule="evenodd" sketch:type="MSShapeGroup" mask="url(#mask-10)"></path>
                    </g>
                </g>
                <path d="M48.0023221,15.2757256 C69.1020554,15.3267715 70.9259206,29.7447556 71.0493765,31.1632539 C72.2240417,44.6600651 67.7194429,59.4752909 63.493621,65.8067369 C59.0254732,72.501254 52.6227612,74.9618249 48.540809,75.1619812 C48.3689173,75.1754503 48.295763,75.1746905 48.2217572,75.173158 C48.1477514,75.1746905 48.074597,75.1754503 48.0023221,75.1754503 C43.8207532,74.9618249 37.4180412,72.501254 32.9498934,65.8067369 C28.7107801,59.4553768 24.1911335,44.5454233 25.4053905,31.0360406 C25.5288001,29.6630303 26.9025887,15.2246797 48.0023221,15.2757256 Z" id="head" fill="#979797" sketch:type="MSShapeGroup" mask="url(#mask-8)"></path>
                <g id="hair" mask="url(#mask-8)" fill="#979797" sketch:type="MSShapeGroup">
                    <g transform="translate(21.385827, 9.929134)" id="Path-5">
                        <path d="M36.1243066,35.8896719 C36.1243066,35.8896719 35.30384,32.0122541 33.2724722,30.916699 C31.8293915,24.7349044 31.7650026,22.5989669 31.7715493,21.5838557 C31.7924968,18.3358199 32.0869783,15.109582 33.8984648,12.4678884 C35.9061387,9.54009471 40.1515668,7.88396796 42.3657861,7.88396796 C44.940299,9.43780932 50.8885623,13.0443134 52.7954836,15.2128464 C53.7771769,16.3292187 52.358897,17.2023253 52.358897,17.2023253 C52.358897,17.2023253 47.3154124,10.411705 46.9407898,14.1515749 C46.5661673,17.8914447 36.1243067,27.224564 36.1243067,27.224564 L36.1243066,35.8896719 Z" transform="translate(42.456407, 21.886820) scale(-1, 1) translate(-42.456407, -21.886820) "></path>
                        <path d="M0.503286584,24.4572995 C0.500456538,25.6072863 1.30800953,29.71306 1.84395846,31.4068476 C3.69716782,32.0439851 4.45735971,36.2436818 4.45735971,36.2436818 L4.45735977,27.213527 C11.0827192,25.3193108 18.6781511,21.4089201 22.9930678,15.5372637 C24.3272214,19.5911347 22.8903574,22.4199045 22.8903574,22.4199045 C22.8903574,22.4199045 30.3295013,22.615543 35.8924091,18.2976044 C39.26126,15.6826966 43.1772773,7.9112844 43.1772773,7.9112844 C43.1772773,7.9112844 41.1836149,-0.964629214 26.5706322,0.24667579 C20.3864351,0.759298639 17.401299,4.68132154 7.30378848,3.67530372 C7.30378848,3.67530372 8.2528014,6.19223234 9.39205247,7.6563309 C4.90712148,9.75711661 0.525240234,15.5364525 0.503286584,24.4572995 Z"></path>
                    </g>
                </g>
            </g>
        </g>
    </g>
</svg>