<?xml version="1.0" encoding="UTF-8" standalone="no"?>
<svg width="199px" height="200px" viewBox="0 0 199 200" version="1.1" xmlns="http://www.w3.org/2000/svg" xmlns:xlink="http://www.w3.org/1999/xlink" xmlns:sketch="http://www.bohemiancoding.com/sketch/ns">
    <!-- Generator: Sketch 3.3.2 (12043) - http://www.bohemiancoding.com/sketch -->
    <title>Feed Box - Monetization</title>
    <desc>Created with Sketch.</desc>
    <defs>
        <path id="path-1" d="M100.24375,198.529167 C45.4229167,198.529167 0.98125,154.0875 0.98125,99.2625 C0.98125,44.4416667 45.4229167,0 100.24375,0 C155.06875,0 199.510417,44.4416667 199.510417,99.2625 C199.510417,154.0875 155.06875,198.529167 100.24375,198.529167 Z"></path>
    </defs>
    <g id="Page-1" stroke="none" stroke-width="1" fill="none" fill-rule="evenodd" sketch:type="MSPage">
        <g id="Feed-Box---Monetization" sketch:type="MSArtboardGroup">
            <path d="M100.2625,198.529167 C45.4416667,198.529167 1,154.0875 1,99.2625 C1,44.4416667 45.4416667,0 100.2625,0 C155.0875,0 199.529167,44.4416667 199.529167,99.2625 C199.529167,154.0875 155.0875,198.529167 100.2625,198.529167 Z" id="Icon-Background" fill="#70CBA1" sketch:type="MSShapeGroup"></path>
            <g id="Shadow-+-Shaking-Hands-Mask" sketch:type="MSLayerGroup">
                <mask id="mask-2" sketch:name="Mask" fill="white">
                    <use xlink:href="#path-1"></use>
                </mask>
                <use id="Mask" fill="#70CBA1" sketch:type="MSShapeGroup" xlink:href="#path-1"></use>
            </g>
            <path d="M112.358542,197.799668 L54.7626689,140.203794 L75.9734923,93.5323668 L90.0409267,107.599801 L90.0409267,107.599801 L106.973492,69.5323668 L126.485754,89.0446289 L143.973492,53 L199.135672,108.162179 C194.990815,154.815127 158.573698,192.185697 112.358542,197.799668 Z" id="Rectangle-44" fill="#72B596" sketch:type="MSShapeGroup"></path>
            <path d="M58.2120148,90.7831197 C54.7954067,90.7831197 52,93.2763203 52,96.3235654 L52,135.106685 C52,138.15393 54.7954067,140.647131 58.2120148,140.647131 L70.6360445,140.647131 C74.0526527,140.647131 76.8480594,138.15393 76.8480594,135.106685 L76.8480594,96.3235654 C76.8480594,93.2763203 74.0526527,90.7831197 70.6360445,90.7831197 L58.2120148,90.7831197 Z M140.143454,52 L127.719424,52 C124.302816,52 121.507409,54.4932006 121.507409,57.5404457 L121.507409,135.106685 C121.507409,138.15393 124.302816,140.647131 127.719424,140.647131 L140.143454,140.647131 C143.560062,140.647131 146.355469,138.15393 146.355469,135.106685 L146.355469,57.5404457 C146.355469,54.4932006 143.560062,52 140.143454,52 L140.143454,52 Z M103.636045,68.621337 L91.2120148,68.621337 C87.7954067,68.621337 85,71.1145376 85,74.1617827 L85,135.106685 C85,138.15393 87.7954067,140.647131 91.2120148,140.647131 L103.636045,140.647131 C107.052653,140.647131 109.848059,138.15393 109.848059,135.106685 L109.848059,74.1617827 C109.848059,71.1145376 107.052653,68.621337 103.636045,68.621337 L103.636045,68.621337 Z" id="Shape" fill="#FFFFFF" sketch:type="MSShapeGroup"></path>
        </g>
    </g>
</svg>