<?xml version="1.0" encoding="UTF-8" standalone="no"?>
<svg width="199px" height="200px" viewBox="0 0 199 200" version="1.1" xmlns="http://www.w3.org/2000/svg" xmlns:xlink="http://www.w3.org/1999/xlink" xmlns:sketch="http://www.bohemiancoding.com/sketch/ns">
    <!-- Generator: Sketch 3.3.2 (12043) - http://www.bohemiancoding.com/sketch -->
    <title>Feed Box - Retention</title>
    <desc>Created with Sketch.</desc>
    <defs>
        <path id="path-1" d="M99.2625,198.529167 C44.4416667,198.529167 0,154.0875 0,99.2625 C0,44.4416667 44.4416667,0 99.2625,0 C154.0875,0 198.529167,44.4416667 198.529167,99.2625 C198.529167,154.0875 154.0875,198.529167 99.2625,198.529167 Z"></path>
    </defs>
    <g id="Page-1" stroke="none" stroke-width="1" fill="none" fill-rule="evenodd" sketch:type="MSPage">
        <g id="Feed-Box---Retention" sketch:type="MSArtboardGroup">
            <path d="M100.2625,198.529167 C45.4416667,198.529167 1,154.0875 1,99.2625 C1,44.4416667 45.4416667,0 100.2625,0 C155.0875,0 199.529167,44.4416667 199.529167,99.2625 C199.529167,154.0875 155.0875,198.529167 100.2625,198.529167 Z" id="Icon-Background" fill="#70CBA1" sketch:type="MSShapeGroup"></path>
            <g id="Shadow-+-Shaking-Hands-Mask" sketch:type="MSLayerGroup" transform="translate(0.000000, 1.000000)">
                <mask id="mask-2" sketch:name="Mask" fill="white">
                    <use xlink:href="#path-1"></use>
                </mask>
                <use id="Mask" fill="#70CBA1" sketch:type="MSShapeGroup" xlink:href="#path-1"></use>
            </g>
            <path d="M87.9740147,197.894325 L34.7390693,144.65938 L48.6266343,135.546945 L48.6266343,135.546945 L34.7390693,121.65938 L49.2304415,112.150752 L33.7390693,96.6593796 L63.1767458,79.0589968 L75.8001215,91.6823725 L75.8001215,91.6823725 L96.2103504,78.2900402 L110.284714,92.3644035 L130.21035,79.2900402 L143.284714,92.3644035 L143.284714,92.3644035 L163.21035,79.2900402 L197.503839,113.583529 C190.562981,161.622281 149.224196,198.529167 99.2625,198.529167 C95.445515,198.529167 91.6788466,198.31372 87.9739924,197.894322 Z" id="Rectangle-56" fill="#72B596" sketch:type="MSShapeGroup"></path>
            <g id="Cohorts" sketch:type="MSLayerGroup" transform="translate(34.000000, 58.000000)">
                <rect id="Rectangle-47" fill="#5D8A7B" sketch:type="MSShapeGroup" x="0.148106275" y="0" width="130.225684" height="13.3957353" rx="2"></rect>
                <rect id="Rectangle-47-Copy" fill="#FFFFFF" sketch:type="MSShapeGroup" x="0.148106275" y="20.1380882" width="29.9207095" height="20.2011435" rx="2"></rect>
                <rect id="Rectangle-47-Copy-2" fill="#E2E2E2" sketch:type="MSShapeGroup" x="33.5830978" y="20.1380882" width="29.9207095" height="20.2011435" rx="2"></rect>
                <rect id="Rectangle-47-Copy-5" fill="#FFFFFF" sketch:type="MSShapeGroup" x="0.148106275" y="43.7177941" width="29.9207095" height="20.2011435" rx="2"></rect>
                <rect id="Rectangle-47-Copy-6" fill="#FFFFFF" sketch:type="MSShapeGroup" x="0.148106275" y="67.2975" width="29.9207095" height="20.2011435" rx="2"></rect>
                <rect id="Rectangle-47-Copy-4" fill="#EDEDED" sketch:type="MSShapeGroup" x="33.5830978" y="43.7177941" width="29.9207095" height="20.2011435" rx="2"></rect>
                <rect id="Rectangle-47-Copy-8" fill="#CCCCCC" sketch:type="MSShapeGroup" x="67.0180893" y="43.7177941" width="29.9207095" height="20.2011435" rx="2"></rect>
                <rect id="Rectangle-47-Copy-3" fill="#BCBCBC" sketch:type="MSShapeGroup" x="67.0180893" y="20.1380882" width="29.9207095" height="20.2011435" rx="2"></rect>
                <rect id="Rectangle-47-Copy-7" fill="#C3C3C3" sketch:type="MSShapeGroup" x="100.453081" y="20.1380882" width="29.9207095" height="20.2011435" rx="2"></rect>
            </g>
        </g>
    </g>
</svg>