<?xml version="1.0" encoding="UTF-8" standalone="no"?>
<svg width="200px" height="200px" viewBox="0 0 200 200" version="1.1" xmlns="http://www.w3.org/2000/svg" xmlns:xlink="http://www.w3.org/1999/xlink" xmlns:sketch="http://www.bohemiancoding.com/sketch/ns">
    <!-- Generator: Sketch 3.3.2 (12043) - http://www.bohemiancoding.com/sketch -->
    <title>Feed Box - Virality</title>
    <desc>Created with Sketch.</desc>
    <defs></defs>
    <g id="Page-1" stroke="none" stroke-width="1" fill="none" fill-rule="evenodd" sketch:type="MSPage">
        <g id="Feed-Box---Virality" sketch:type="MSArtboardGroup">
            <path d="M100.2625,198.529167 C45.4416667,198.529167 1,154.0875 1,99.2625 C1,44.4416667 45.4416667,0 100.2625,0 C155.0875,0 199.529167,44.4416667 199.529167,99.2625 C199.529167,154.0875 155.0875,198.529167 100.2625,198.529167 Z" id="Icon-Background" fill="#70CBA1" sketch:type="MSShapeGroup"></path>
            <path d="M199.499539,101.711965 L141.962992,44.1754178 L53.2505661,117.462992 L129.836921,194.049347 C169.47472,181.695752 198.44731,145.164901 199.49954,101.711943 Z" id="Rectangle-71" fill="#72B596" sketch:type="MSShapeGroup"></path>
            <g id="fa-rocket" sketch:type="MSLayerGroup" transform="translate(100.000000, 100.000000) rotate(-9.000000) translate(-100.000000, -100.000000) translate(49.000000, 50.000000)" fill="#FFFFFF">
                <path d="M1.57282093,60.2360078 L5.53472886,64.0783631 C5.8632534,64.5183275 6.41733211,64.6258743 6.96650747,64.6258743 L7.51568283,64.6258743 L24.4665686,59.3609676 L41.745979,76.5880161 L36.4601662,93.4826471 C36.2395153,94.2550289 36.4601662,94.910087 37.0093415,95.4624867 L40.8633757,99.4075003 C41.4125511,99.7399178 41.8538527,99.9599 42.2951543,99.9599 C42.736456,99.9599 43.0649805,99.8474647 43.2856313,99.6274825 L66.9492052,85.9152603 C67.4983805,85.5828428 67.8269051,85.0353316 67.8269051,84.3753851 L69.15081,61.1159365 C73.769767,57.2735812 77.7316749,53.6560966 81.0365338,50.3612524 C88.4111743,43.1213947 93.58421,35.7691015 96.6635147,28.3092616 C99.7477227,20.9569685 101.287375,12.0696886 101.287375,1.97495108 C101.287375,1.42255139 101.066724,0.987475538 100.625423,0.547511189 C100.296898,0.219982174 99.7477227,-3.55271368e-14 99.193644,-3.55271368e-14 C88.519048,-3.55271368e-14 79.7126289,1.42255139 72.77929,4.3898665 C65.7380774,7.23985778 58.4713106,12.5047645 50.7681455,20.1894751 C47.4681901,23.4794307 43.8348067,27.4293329 39.9856758,32.0391816 L16.6506265,33.3541861 C15.988674,33.3541861 15.4394987,33.6866036 15.1109741,34.2341148 L1.35217011,57.8259809 C0.802994755,58.5934742 0.910868486,59.3609676 1.57282093,60.2360078 L1.57282093,60.2360078 Z M81.5857091,13.7122222 C83.2381385,13.7122222 84.6650138,14.2646219 85.7682679,15.4720796 C86.9793957,16.567102 87.528571,17.9945419 87.528571,19.6370754 C87.528571,21.1769506 86.9793957,22.599502 85.7682679,23.8069598 C84.6650138,24.9068706 83.2381385,25.4543818 81.5857091,25.4543818 C80.0460568,25.4543818 78.6142782,24.9068706 77.4031504,23.8069598 C76.3047997,22.599502 75.7507209,21.1769506 75.7507209,19.6370754 C75.7507209,17.9945419 76.3047997,16.567102 77.4031504,15.4720796 C78.6142782,14.2646219 80.0460568,13.7122222 81.5857091,13.7122222 L81.5857091,13.7122222 Z" id="Fill-128" sketch:type="MSShapeGroup"></path>
            </g>
        </g>
    </g>
</svg>