<?xml version="1.0" encoding="UTF-8" standalone="no"?>
<svg width="3000px" height="1920px" viewBox="0 0 3000 1920" version="1.1" xmlns="http://www.w3.org/2000/svg" xmlns:xlink="http://www.w3.org/1999/xlink" xmlns:sketch="http://www.bohemiancoding.com/sketch/ns">
    <!-- Generator: Sketch 3.3.3 (12081) - http://www.bohemiancoding.com/sketch -->
    <title>Tapglue Logo New</title>
    <desc>Created with Sketch.</desc>
    <defs></defs>
    <g id="Logo" stroke="none" stroke-width="1" fill="none" fill-rule="evenodd" sketch:type="MSPage">
        <g id="Tapglue-Logo-New" sketch:type="MSLayerGroup">
            <rect id="BG" fill="#72E0AE" sketch:type="MSShapeGroup" x="0" y="0" width="3000" height="1920"></rect>
            <path d="M765.80842,816.86426 C808.606587,814.43362 844.877755,808.267593 867.5,799.981897 L867.5,799.981897 L867.5,1137.42737 C867.5,1136.56926 867.368696,1136.78227 868.143645,1136.39319 C867.400785,1136.79815 867.342925,1136.83124 867.19753,1136.9113 C866.877642,1137.08743 866.468347,1137.30415 865.968689,1137.55825 C864.439769,1138.33581 862.538117,1139.22459 860.256003,1140.19911 C853.523896,1143.0739 845.179046,1145.98415 835.158725,1148.72506 C806.042818,1156.68928 769.490743,1161.5 725,1161.5 C680.509258,1161.5 643.957183,1156.68928 614.841275,1148.72506 C604.820955,1145.98415 596.476104,1143.0739 589.743997,1140.19911 C587.461883,1139.22459 585.560231,1138.33581 584.031311,1137.55825 C583.531653,1137.30415 583.122358,1137.08743 582.80247,1136.9113 C582.657075,1136.83124 581.663864,1136.29861 581.663864,1136.29861 C582.602691,1136.74996 582.5,1136.58229 582.5,1137.43261 L582.5,799.981897 C591.082932,803.125509 601.630573,805.964003 613.75397,808.409139 L613.753992,808.409143 L617.174966,881.00322 C617.470851,887.281989 621.583216,896.280688 626.318842,901.10392 C626.318842,901.10392 636.880125,916.993961 662.657522,916.993961 C688.43492,916.993961 698.981174,901.10392 698.981174,901.10392 C703.902966,896.43672 707.816125,887.281298 708.106041,881.00322 L709.412502,852.712009 C710.262573,853.958537 711.156949,855.096599 712.070551,856.072668 C712.070551,856.072668 716.730641,865.717551 733.807009,865.717551 C750.883378,865.717551 755.516491,856.086269 755.516491,856.086269 C760.408418,851.32873 764.264962,842.042059 764.650118,835.759164 L765.80842,816.86426 L765.80842,816.86426 Z M892.485797,780.5 L892.5,780.5 L892.5,793 L892.5,1137.42737 C892.5,1146.02037 887.038236,1154.88081 879.255854,1158.811 C878.696631,1159.11892 878.045447,1159.4637 877.301412,1159.84209 C875.276923,1160.87167 872.870127,1161.99655 870.073971,1163.19058 C862.296735,1166.51167 852.875524,1169.79729 841.754785,1172.8392 C810.467665,1181.39732 771.697323,1186.5 725,1186.5 C678.302677,1186.5 639.532336,1181.39732 608.245215,1172.8392 C597.124476,1169.79729 587.703266,1166.51167 579.926029,1163.19058 C577.129873,1161.99655 574.723077,1160.87167 572.698589,1159.84209 C571.954553,1159.4637 571.303369,1159.11892 569.867442,1158.31333 L570.831514,1158.82992 C563.004759,1155.06706 557.5,1146.07886 557.5,1137.43261 L557.5,793.262831 L557.5,780.762831 L557.533078,780.762831 C557.51106,780.509156 557.5,780.254871 557.5,780 C557.5,759.01318 632.492304,742 725,742 C817.507696,742 892.5,759.01318 892.5,780 C892.5,780.16692 892.495256,780.333589 892.485797,780.5 L892.485797,780.5 L892.485797,780.5 Z M724.5,1282 C902.611832,1282 1047,1137.61183 1047,959.5 C1047,781.388168 902.611832,637 724.5,637 C546.388168,637 402,781.388168 402,959.5 C402,1137.61183 546.388168,1282 724.5,1282 L724.5,1282 Z M635.769893,949.570155 C636.118307,949.709648 636.748296,949.951125 637.647835,950.279908 C639.113452,950.815594 640.824341,951.409119 642.7685,952.045788 C648.285705,953.852548 654.590271,955.654679 661.586502,957.334236 C681.546362,962.125921 703.105248,965 725.5,965 C747.894752,965 769.453638,962.125921 789.413498,957.334236 C796.409729,955.654679 802.714295,953.852548 808.2315,952.045788 C810.175659,951.409119 811.886548,950.815594 813.352165,950.279908 C814.251704,949.951125 814.881693,949.709648 815.230107,949.570155 C818.306418,948.338501 819.801809,944.846204 818.570155,941.769893 C817.338501,938.693582 813.846204,937.198191 810.769893,938.429845 C810.724001,938.448219 810.60671,938.494188 810.419555,938.565926 C810.090241,938.692153 809.694106,938.840505 809.232687,939.009154 C807.89287,939.498859 806.310178,940.047912 804.496922,940.641712 C799.278657,942.350577 793.284177,944.064071 786.612294,945.665764 C767.520401,950.249079 746.88534,953 725.5,953 C704.11466,953 683.479599,950.249079 664.387706,945.665764 C657.715823,944.064071 651.721343,942.350577 646.503078,940.641712 C644.689822,940.047912 643.10713,939.498859 641.767313,939.009154 C641.305894,938.840505 640.909759,938.692153 640.580445,938.565926 C640.39329,938.494188 640.275999,938.448219 640.230107,938.429845 C637.153796,937.198191 633.661499,938.693582 632.429845,941.769893 C631.198191,944.846204 632.693582,948.338501 635.769893,949.570155 L635.769893,949.570155 Z M635.769893,1064.57016 C636.118307,1064.70965 636.748296,1064.95113 637.647835,1065.27991 C639.113452,1065.81559 640.824341,1066.40912 642.7685,1067.04579 C648.285705,1068.85255 654.590271,1070.65468 661.586502,1072.33424 C681.546362,1077.12592 703.105248,1080 725.5,1080 C747.894752,1080 769.453638,1077.12592 789.413498,1072.33424 C796.409729,1070.65468 802.714295,1068.85255 808.2315,1067.04579 C810.175659,1066.40912 811.886548,1065.81559 813.352165,1065.27991 C814.251704,1064.95113 814.881693,1064.70965 815.230107,1064.57016 C818.306418,1063.3385 819.801809,1059.8462 818.570155,1056.76989 C817.338501,1053.69358 813.846204,1052.19819 810.769893,1053.42985 C810.724001,1053.44822 810.60671,1053.49419 810.419555,1053.56593 C810.090241,1053.69215 809.694106,1053.84051 809.232687,1054.00915 C807.89287,1054.49886 806.310178,1055.04791 804.496922,1055.64171 C799.278657,1057.35058 793.284177,1059.06407 786.612294,1060.66576 C767.520401,1065.24908 746.88534,1068 725.5,1068 C704.11466,1068 683.479599,1065.24908 664.387706,1060.66576 C657.715823,1059.06407 651.721343,1057.35058 646.503078,1055.64171 C644.689822,1055.04791 643.10713,1054.49886 641.767313,1054.00915 C641.305894,1053.84051 640.909759,1053.69215 640.580445,1053.56593 C640.39329,1053.49419 640.275999,1053.44822 640.230107,1053.42985 C637.153796,1052.19819 633.661499,1053.69358 632.429845,1056.76989 C631.198191,1059.8462 632.693582,1063.3385 635.769893,1064.57016 L635.769893,1064.57016 Z" id="Icon" fill="#FFFFFF" sketch:type="MSShapeGroup"></path>
            <text id="TAPGLUE" fill="#FFFFFF" sketch:type="MSTextLayer" font-family="Lato" font-size="230" font-weight="normal" line-spacing="300" letter-spacing="80">
                <tspan x="1209" y="1051">TAP</tspan>
                <tspan x="1862.54" y="1051" font-weight="300">GLUE</tspan>
            </text>
        </g>
    </g>
</svg>
