<?xml version="1.0" encoding="UTF-8" standalone="no"?>
<svg width="216px" height="293px" viewBox="0 0 216 293" version="1.1" xmlns="http://www.w3.org/2000/svg" xmlns:xlink="http://www.w3.org/1999/xlink" xmlns:sketch="http://www.bohemiancoding.com/sketch/ns">
    <!-- Generator: Sketch 3.3.2 (12043) - http://www.bohemiancoding.com/sketch -->
    <title>Home - News Feed</title>
    <desc>Created with Sketch.</desc>
    <defs>
        <rect id="path-1" x="0" y="0" width="235" height="293"></rect>
        <rect id="path-3" x="0.555555556" y="0.571428571" width="40.8888889" height="30.8571429"></rect>
    </defs>
    <g id="Page-1" stroke="none" stroke-width="1" fill="none" fill-rule="evenodd" sketch:type="MSPage">
        <g id="Home---News-Feed" sketch:type="MSArtboardGroup" transform="translate(-10.000000, -30.000000)">
            <g id="Device-with-feed" sketch:type="MSLayerGroup" transform="translate(0.000000, 30.000000)">
                <mask id="mask-2" sketch:name="Mask" fill="white">
                    <use xlink:href="#path-1"></use>
                </mask>
                <use id="Mask" sketch:type="MSShapeGroup" xlink:href="#path-1"></use>
                <g id="Source-Code" mask="url(#mask-2)">
                    <g transform="translate(33.000000, 44.000000)">
                        <rect id="Code-Background" fill="#262626" fill-rule="evenodd" sketch:type="MSShapeGroup" x="0" y="0.33976834" width="171.850394" height="306.555985"></rect>
                        <text id="Code" fill="none" sketch:type="MSTextLayer" font-family="Monaco" font-size="8" font-weight="normal" line-spacing="10">
                            <tspan x="1" y="14.5096525" fill="#CCCCCC">   </tspan>
                            <tspan x="15.4023438" y="14.5096525" fill="#5DA2FF">"events"</tspan>
                            <tspan x="53.8085938" y="14.5096525" fill="#CCCCCC">:[</tspan>
                            <tspan x="1" y="25.5096525" fill="#CCCCCC">      {</tspan>
                            <tspan x="1" y="36.5096525" fill="#CCCCCC">         </tspan>
                            <tspan x="44.2070312" y="36.5096525" fill="#D6D6D6">"</tspan>
                            <tspan x="49.0078125" y="36.5096525" fill="#CCCCCC">id</tspan>
                            <tspan x="58.609375" y="36.5096525" fill="#D6D6D6">":</tspan>
                            <tspan x="68.2109375" y="36.5096525" fill="#F63B3B">3960</tspan>
                            <tspan x="87.4140625" y="36.5096525" fill="#CCCCCC">,</tspan>
                            <tspan x="49.0078125" y="47.5096525" fill="#CCCCCC">         "user_id":</tspan>
                            <tspan x="92.2148438" y="47.5096525" fill="#4BBE3D">"8911b06c"</tspan>
                            <tspan x="140.222656" y="47.5096525" fill="#CCCCCC">,</tspan>
                            <tspan x="49.0078125" y="58.5096525" fill="#CCCCCC">         "verb":</tspan>
                            <tspan x="77.8125" y="58.5096525" fill="#4BBE3D">"like"</tspan>
                            <tspan x="106.617188" y="58.5096525" fill="#CCCCCC">,</tspan>
                            <tspan x="49.0078125" y="69.5096525" fill="#CCCCCC">         "language":</tspan>
                            <tspan x="97.015625" y="69.5096525" fill="#4BBE3D">"en"</tspan>
                            <tspan x="116.21875" y="69.5096525" fill="#CCCCCC">,</tspan>
                        </text>
                    </g>
                </g>
                <g id="Newsfeed" mask="url(#mask-2)">
                    <g transform="translate(33.000000, 123.000000)">
                        <g id="Entry-1">
                            <rect id="Rectangle-27-Copy" fill="#72B596" sketch:type="MSShapeGroup" x="0" y="0" width="172" height="67"></rect>
                            <g id="Picture" transform="translate(13.000000, 16.000000)" sketch:type="MSShapeGroup">
                                <path d="M2.55555556,0 C1.15,0 0,1.15714286 0,2.57142857 L0,33.4285714 C0,34.8428571 1.15,36 2.55555556,36 L43.4444444,36 C44.85,36 46,34.8428571 46,33.4285714 L46,2.57142857 C46,1.15714286 44.85,0 43.4444444,0 L2.55555556,0 Z" id="Shape-Copy" fill="#FFFFFF"></path>
                                <rect id="Rectangle-path-Copy" fill="#80BCE3" x="2.55555556" y="2.57142857" width="40.8888889" height="30.8571429"></rect>
                                <path d="M27.7576815,33.4285714 C26.0943339,32.3074227 25,30.4037316 25,28.2439126 C25,24.7954949 27.7896831,22 31.2309315,22 C34.2461192,22 36.7610942,24.1461266 37.3376325,26.9971595 C37.3788772,26.99581 37.4202909,26.9951301 37.461863,26.9951301 C39.5266121,26.9951301 41.2004219,28.672427 41.2004219,30.7414776 C41.2004219,31.7954854 40.7660602,32.7478312 40.0669272,33.4285714 L27.7576815,33.4285714 Z" id="Oval-43" opacity="0.935576026" fill="#F0F8FC"></path>
                                <path d="M14.4110333,19.3458996 C14.4110333,19.3458996 32.7425415,13.1320942 31.9766523,10.5875736 C31.2107631,8.04305311 23.356425,11.5361445 23.356425,11.5361445 L12.5396426,7.16588115 L9.49254221,8.42789186 L18.2457422,13.7994611 L13.0398553,16.68331 L8.50062609,14.9483471 L7.0134201,16.1303693 L10.16536,18.1578877 L9.77177159,19.296031 L11.0570031,19.9227891 L10.4719875,23.9472656 L12.6576724,23.828978 L14.4110333,19.3458996 Z M28.2447154,11.1299791 C28.6424538,10.9445107 29.0916012,11.0659038 29.2479143,11.4011183 C29.4042274,11.7363328 29.2085135,12.1584297 28.8107751,12.3438981 C28.4130367,12.5293666 27.9638893,12.4079735 27.8075762,12.072759 C27.6512631,11.7375445 27.846977,11.3154476 28.2447154,11.1299791 Z" id="Path-195" fill="#9C6E6E"></path>
                            </g>
                            <g id="Entry-Text" transform="translate(73.000000, 21.000000)" fill="#EBEBEB" sketch:type="MSShapeGroup">
                                <path d="M0,0 L82,0 L82,5 L66.1074219,5 L0,5 L0,0 Z" id="Rectangle-28"></path>
                                <rect id="Rectangle-28-Copy" x="0" y="11" width="68" height="5"></rect>
                                <rect id="Rectangle-28-Copy-2" x="0" y="21" width="74" height="5"></rect>
                            </g>
                        </g>
                        <g id="Entry-2" transform="translate(0.000000, 67.000000)">
                            <rect id="Rectangle-27" fill="#70CBA1" sketch:type="MSShapeGroup" x="0" y="0" width="172" height="67"></rect>
                            <g id="Landscape-Picture" transform="translate(13.000000, 15.000000)">
                                <path d="M2.55555556,0 C1.15,0 0,1.15714286 0,2.57142857 L0,33.4285714 C0,34.8428571 1.15,36 2.55555556,36 L43.4444444,36 C44.85,36 46,34.8428571 46,33.4285714 L46,2.57142857 C46,1.15714286 44.85,0 43.4444444,0 L2.55555556,0 Z" id="Shape-Copy" fill="#FFFFFF" sketch:type="MSShapeGroup"></path>
                                <rect id="Rectangle-path-Copy" fill="#D0E8F7" sketch:type="MSShapeGroup" x="2.55555556" y="2.57142857" width="40.8888889" height="30.8571429"></rect>
                                <g id="Group-+-Group-Mask" transform="translate(2.000000, 2.000000)">
                                    <mask id="mask-4" sketch:name="Mask" fill="white">
                                        <use xlink:href="#path-3"></use>
                                    </mask>
                                    <use id="Mask" fill="#D0E8F7" sketch:type="MSShapeGroup" xlink:href="#path-3"></use>
                                    <g id="Group" mask="url(#mask-4)" sketch:type="MSShapeGroup">
                                        <g transform="translate(-0.015873, 0.571429)">
                                            <path d="M0.901376871,20.4444535 L20.6383383,20.4444535 C18.4845424,16.6750023 5.74063311,12.9169615 0.901376871,20.4444535" id="Fill-1063" fill="#F9E1C2"></path>
                                            <path d="M10.7698884,6.56690249 C10.4701333,6.55456689 10.178088,6.55364172 9.89221043,6.56073469 C9.38151655,7.02486168 8.91584762,7.54110658 8.49397007,8.09343311 C6.12245079,11.1927528 5.09767075,15.3671202 4.75042358,17.1320363 C6.23933061,16.4504943 7.89476825,16.1362449 9.56655057,16.1020136 C9.64765714,13.5682812 9.91965714,10.5852245 10.658868,8.49742404 C10.8830676,7.8464127 11.1112762,7.38166893 11.3157388,7.04768254 C11.1442739,6.8789932 10.9654077,6.71616327 10.7698884,6.56690249" id="Fill-1064" fill="#84462D"></path>
                                            <path d="M10.7698576,6.56690249 C8.28485079,6.46544218 6.27815692,7.05014966 4.60205714,8.10885261 C4.94437007,6.5758458 5.92690068,5.41814966 7.68595737,4.71656236 C5.79891882,4.12383673 3.94919546,4.55434921 2.13493696,5.95012245 C4.10924989,2.42121542 6.82524082,1.76681179 10.1530776,3.48300227 C9.93751293,2.47641723 8.91550839,1.67892063 7.37756735,1.01588209 C9.805522,0.894376417 11.5136943,1.45595465 12.0034177,3.17461224 C13.1910277,2.24358277 14.4329143,2.4094966 15.704098,3.17461224 C14.7391456,3.16721088 13.8879891,3.49317914 13.2369778,4.40817234 C15.7358621,4.94908844 16.6918712,6.83581859 16.937658,9.3424127 C15.7654676,8.01695238 14.5559619,6.99556463 13.2369778,6.87529252 C13.8195265,8.15942857 13.6829098,9.38096145 13.2369778,10.5759728 C12.7796354,8.94736508 12.0456671,7.54018141 10.7698576,6.56690249" id="Fill-1065" fill="#0C7367"></path>
                                            <path d="M5.64435374,13.7460989 C5.61659864,13.8290558 5.59038549,13.9107791 5.56417234,13.9928109 C6.85848526,14.1177088 9.0116644,14.5038132 9.63183673,14.6219265 C9.64417234,14.4156136 9.65959184,14.2148517 9.67192744,14.0177905 C9.08043537,13.9215728 6.90011791,13.6020807 5.64435374,13.7460989" id="Fill-1066" fill="#9C6144"></path>
                                            <path d="M6.43253696,11.6813968 C6.40293152,11.7492426 6.37425125,11.81678 6.34557098,11.8843175 C7.34598821,12.0866213 8.98323084,12.5192925 9.78936236,12.7869751 C9.80755737,12.5865215 9.83222857,12.3925442 9.85689977,12.2044263 C9.03133968,11.9734422 7.40735782,11.6394558 6.43253696,11.6813968" id="Fill-1067" fill="#9C6144"></path>
                                            <path d="M7.31814059,9.89415329 C7.28976871,9.94472925 7.26047166,9.99530522 7.23240816,10.0461896 C8.03823129,10.2398585 9.29769615,10.6065342 10.0575692,10.8874776 C10.0914921,10.6993596 10.125415,10.5174095 10.1624218,10.3447111 C9.42629478,10.1214367 8.22943311,9.87657506 7.31814059,9.89415329" id="Fill-1068" fill="#9C6144"></path>
                                            <path d="M8.49397007,8.09349478 C8.44801995,8.15363084 8.40392018,8.21561723 8.35889524,8.27667846 C9.04506304,8.45801179 9.9890449,8.7112 10.5077569,8.96623855 C10.5570993,8.79970794 10.6064417,8.64551293 10.658868,8.49748571 C10.1207274,8.29425669 9.20943492,8.12248345 8.51339864,8.06882358 C8.50692245,8.07715011 8.50044626,8.08516825 8.49397007,8.09349478" id="Fill-1069" fill="#9C6144"></path>
                                            <path d="M0.248906765,20.4461412 L6.91434959,20.4461412 L11.7624819,16.1458234 C7.40128447,15.8511966 2.82896598,16.8862469 0.248906765,20.4461412" id="Fill-1070" fill="#FCF1E2"></path>
                                        </g>
                                    </g>
                                    <g id="Group" mask="url(#mask-4)" sketch:type="MSShapeGroup">
                                        <g transform="translate(11.852608, 2.571429)">
                                            <path d="M29.7688118,29.4285714 L28.1483832,25.2152766 C27.7472245,24.1728957 26.8862449,23.3741882 25.8163379,23.0533515 L19.8413741,21.6287642 L19.8413741,17.8915351 C18.559381,19.8752177 16.8107982,20.8120068 15.3289025,21.3061224 C13.8483605,20.812458 12.0988753,19.8815351 10.8164308,17.9019138 L10.8164308,22.6598639 C10.8164308,22.6598639 11.7189252,24.4648526 15.3289025,24.4648526 L15.3289025,29.4285714 L29.7688118,29.4285714 Z" id="Fill-370" fill="#F8B4B4"></path>
                                            <path d="M19.8413741,21.6288995 L22.09761,22.1667862 L22.09761,14.438276 C21.8408503,14.6977431 21.5191111,14.8850107 21.1147937,14.954954 C20.7989206,16.1331603 20.3571497,17.0970243 19.8413741,17.8939268 L19.8413741,21.6288995 Z" id="Fill-371" fill="#3E3E3F"></path>
                                            <path d="M10.8164308,17.9017333 L10.8164308,21.6290349 L4.84146712,23.0536222 C3.77156009,23.374459 2.9105805,24.1727152 2.50942177,25.2155474 L0.888993197,29.4283909 L15.3289025,29.4283909 L15.3289025,21.305942 C13.8483605,20.8127288 12.0988753,19.8813546 10.8164308,17.9017333" id="Fill-372" fill="#FBC8C8"></path>
                                            <path d="M22.108846,10.4777247 C22.108846,10.4795297 22.1083948,10.4822372 22.1083948,10.4844934 C21.4175354,10.6708585 18.1541159,9.82386757 18.0417553,3.15172698 C17.2994537,2.92790839 16.4059844,2.80516916 15.3288574,2.80516916 C9.47347415,2.80516916 9.0195195,6.40160907 9.01139705,10.4668948 C9.01139705,18.0464934 12.6213744,20.4038086 15.3288574,21.3063029 C17.4063993,20.6136385 20.0128029,19.0617995 21.1147485,14.9549991 C22.6101816,14.6964345 23.0000592,12.8738472 23.0000592,11.4790422 C23.0000592,10.9817678 22.5564832,10.4858472 22.108846,10.4777247" id="Fill-373" fill="#FBC8C8"></path>
                                            <path d="M28.1482478,25.2153218 C27.883817,24.5285236 27.4176787,23.9518297 26.8260937,23.543451 C25.7169281,25.6124193 20.7897603,27.1723807 14.87752,27.1723807 C9.43728413,27.1723807 4.83140431,25.8515803 3.26602789,24.0285417 C2.94383741,24.3678796 2.68211406,24.7667821 2.50973764,25.2153218 L0.888857823,29.4286166 L15.3287671,29.4286166 L29.7686764,29.4286166 L28.1482478,25.2153218 Z" id="Fill-374" fill="#FA5655"></path>
                                            <path d="M15.3289025,2.80498866 C9.47351927,2.80498866 9.01956463,6.40187982 9.01144218,10.4667143 C9.01144218,18.0467642 12.6214195,20.4036281 15.3289025,21.3061224 L15.3289025,2.80498866 Z" id="Fill-375" fill="#FBD7D7"></path>
                                            <path d="M13.975161,11.3786848 C13.975161,10.8805079 13.5712948,10.4761905 13.0726667,10.4761905 L13.0699592,10.4761905 C13.0704104,10.4856667 13.0726667,10.4951429 13.0726667,10.504619 C13.0726667,11.0018934 12.6701542,11.4053084 12.1728798,11.4066621 C12.1882222,11.8917528 12.583966,12.2811791 13.0726667,12.2811791 C13.5712948,12.2811791 13.975161,11.8768617 13.975161,11.3786848" id="Fill-376" fill="#3E3E3F"></path>
                                            <path d="M18.4847898,11.3786848 C18.4847898,10.8805079 18.0804723,10.4761905 17.5822955,10.4761905 L17.579588,10.4761905 C17.5800392,10.4856667 17.5822955,10.4951429 17.5822955,10.504619 C17.5822955,11.0018934 17.179783,11.4053084 16.6825086,11.4066621 C16.697851,11.8917528 17.0935948,12.2811791 17.5822955,12.2811791 C18.0804723,12.2811791 18.4847898,11.8768617 18.4847898,11.3786848" id="Fill-377" fill="#3E3E3F"></path>
                                            <path d="M13.0726667,16.3424036 L17.5851383,16.3424036 C17.5851383,16.3424036 17.5851383,17.6961451 15.3289025,17.6961451 C13.0726667,17.6961451 13.0726667,16.3424036 13.0726667,16.3424036" id="Fill-378" fill="#F89392"></path>
                                            <path d="M7.20645351,7.76870748 L7.20645351,28.5260771 C7.20645351,28.5260771 12.1701723,25.8185941 12.1701723,17.5639297 L12.1701723,10.4761905 C12.1701723,3.26165079 18.4876327,6.86621315 18.0363855,2.80498866 C18.0363855,-0.804988662 7.20645351,1 7.20645351,7.76870748" id="Fill-379" fill="#3E3E3F"></path>
                                            <path d="M18.0364306,2.83468073 C18.0477118,9.80148571 21.4067957,10.6737465 22.108485,10.4846739 C22.108485,9.01676689 23.0673853,2.82430204 18.0662129,2.80489841 C18.0504193,2.80489841 18.0364306,2.81888707 18.0364306,2.83468073" id="Fill-380" fill="#3E3E3F"></path>
                                            <path d="M21.8029456,15.4399093 L22.492,17.1036576 C22.6075193,17.3820771 22.5438934,17.7029138 22.3304535,17.9163537 C22.0389478,18.2078594 21.5669433,18.2078594 21.2754376,17.9163537 C21.062449,17.7029138 20.9983719,17.3820771 21.1138912,17.1036576 L21.8029456,15.4399093 Z" id="Fill-381" fill="#FFFFFF"></path>
                                        </g>
                                    </g>
                                </g>
                            </g>
                            <g id="Entry-Text" transform="translate(73.000000, 21.000000)" fill="#EBEBEB" sketch:type="MSShapeGroup">
                                <path d="M0,0 L70,0 L70,5 L56.433165,5 L0,5 L0,0 Z" id="Rectangle-28"></path>
                                <rect id="Rectangle-28-Copy" x="0" y="11" width="81" height="5"></rect>
                                <rect id="Rectangle-28-Copy-2" x="0" y="21" width="62" height="5"></rect>
                            </g>
                        </g>
                        <g id="Entry-3" transform="translate(0.000000, 134.000000)">
                            <rect id="Rectangle-27-Copy-2" fill="#72B596" sketch:type="MSShapeGroup" x="0" y="0" width="172" height="67"></rect>
                            <g id="Entry-Text" transform="translate(73.000000, 21.000000)" fill="#EBEBEB" sketch:type="MSShapeGroup">
                                <path d="M0,0 L82,0 L82,5 L66.1074219,5 L0,5 L0,0 Z" id="Rectangle-28"></path>
                                <rect id="Rectangle-28-Copy" x="0" y="11" width="68" height="5"></rect>
                            </g>
                            <g id="Landscape-Picture-Copy" transform="translate(13.000000, 16.000000)" sketch:type="MSShapeGroup">
                                <path d="M2.55555556,0 C1.15,0 0,1.15714286 0,2.57142857 L0,33.4285714 C0,34.8428571 1.15,36 2.55555556,36 L43.4444444,36 C44.85,36 46,34.8428571 46,33.4285714 L46,2.57142857 C46,1.15714286 44.85,0 43.4444444,0 L2.55555556,0 Z" id="Shape-Copy" fill="#FFFFFF"></path>
                                <rect id="Rectangle-path-Copy" fill="#344E5F" x="2.55555556" y="2.57142857" width="40.8888889" height="30.8571429"></rect>
                                <g id="Grass-Copy" transform="translate(2.555556, 19.285714)" fill="#3DBB69">
                                    <path d="M23,2.57142857 C19.0388889,0.257142857 10.2222222,-2.57142857 0,5.14285714 L0,14.1428571 L40.8888889,14.1428571 L40.8888889,3.85714286 C40.8888889,3.85714286 31.9444444,7.71428571 23,2.57142857 L23,2.57142857 Z" id="Shape"></path>
                                </g>
                                <ellipse id="Oval-Copy" fill="#EDC03D" cx="33.2222222" cy="12.8571429" rx="5.11111111" ry="5.14285714"></ellipse>
                            </g>
                        </g>
                    </g>
                </g>
                <g id="Apple-iPhone-6" mask="url(#mask-2)" fill="#414141" sketch:type="MSShapeGroup">
                    <g transform="translate(21.000000, 0.000000)">
                        <path d="M193.982364,113.951184 L194.771339,113.951184 C194.986208,113.951184 195.160394,113.778117 195.160394,113.55687 L195.160394,84.8753641 C195.160394,84.6575904 194.975518,84.48105 194.771339,84.48105 L193.982364,84.48105 L193.982364,19.7755306 C193.982364,8.85380664 185.133427,0 174.210086,0 L20.9503089,0 C10.0303811,0 1.17803055,8.85692946 1.17803055,19.7755306 L1.17803055,50.2956949 L0.389055572,50.2956949 C0.174186113,50.2956949 0,50.4766216 0,50.6939302 L0,66.0077993 C0,66.2277386 0.184876163,66.4060347 0.389055572,66.4060347 L1.17803055,66.4060347 L1.17803055,84.48105 L0.389055572,84.48105 C0.174186113,84.48105 0,84.654117 0,84.8753641 L0,113.55687 C0,113.774643 0.184876163,113.951184 0.389055572,113.951184 L1.17803055,113.951184 L1.17803055,120.631081 L0.389055572,120.631081 C0.174186113,120.631081 0,120.804148 0,121.025395 L0,149.7069 C0,149.924674 0.184876163,150.101214 0.389055572,150.101214 L1.17803055,150.101214 L1.17803055,378.660677 C1.17803055,389.582401 10.0269673,398.436208 20.9503089,398.436208 L174.210086,398.436208 C185.130013,398.436208 193.982364,389.579278 193.982364,378.660677 L193.982364,113.951184 L193.982364,113.951184 Z M12.958336,48.3310193 L12.958336,349.319318 L182.202058,349.319318 L182.202058,48.3310193 L12.958336,48.3310193 Z M97.3838588,386.255219 C105.624897,386.255219 112.305579,379.570144 112.305579,371.323685 C112.305579,363.077226 105.624897,356.39215 97.3838588,356.39215 C89.1428202,356.39215 82.4621385,363.077226 82.4621385,371.323685 C82.4621385,379.570144 89.1428202,386.255219 97.3838588,386.255219 Z M97.3838588,384.683479 C104.75742,384.683479 110.734872,378.702095 110.734872,371.323685 C110.734872,363.945274 104.75742,357.963891 97.3838588,357.963891 C90.010298,357.963891 84.0328459,363.945274 84.0328459,371.323685 C84.0328459,378.702095 90.010298,384.683479 97.3838588,384.683479 Z M66.7550645,28.2913284 C68.49002,28.2913284 69.8964793,26.883944 69.8964793,25.1478474 C69.8964793,23.4117509 68.49002,22.0043665 66.7550645,22.0043665 C65.020109,22.0043665 63.6136497,23.4117509 63.6136497,25.1478474 C63.6136497,26.883944 65.020109,28.2913284 66.7550645,28.2913284 Z M97.7765356,14.5385993 C98.8608828,14.5385993 99.7399199,13.6589841 99.7399199,12.5739237 C99.7399199,11.4888634 98.8608828,10.6092481 97.7765356,10.6092481 C96.6921885,10.6092481 95.8131514,11.4888634 95.8131514,12.5739237 C95.8131514,13.6589841 96.6921885,14.5385993 97.7765356,14.5385993 Z M83.6488227,23.576107 C82.7765657,23.576107 82.0694616,24.2737473 82.0694616,25.1478474 C82.0694616,26.0158957 82.7696357,26.7195879 83.6488227,26.7195879 L111.904249,26.7195879 C112.776506,26.7195879 113.48361,26.0219476 113.48361,25.1478474 C113.48361,24.2797992 112.783436,23.576107 111.904249,23.576107 L83.6488227,23.576107 Z"></path>
                    </g>
                </g>
                <path d="M12.5,292.5 L222.5,292.5" id="Line" stroke="#979797" stroke-width="3" stroke-linecap="square" sketch:type="MSShapeGroup" mask="url(#mask-2)"></path>
            </g>
        </g>
    </g>
</svg>