<svg xmlns="http://www.w3.org/2000/svg" preserveAspectRatio="xMidYMid" width="30" height="30" viewBox="0 0 30 30"><defs><style>.cls-1 { fill: #354c51; fill-rule: evenodd; }</style></defs><path d="M6.93 28.728c-.782.78-2.682.148-4.244-1.414C1.124 25.752.49 23.852 1.272 23.07l19.8-19.798c.78-.78 2.68-.148 4.242 1.414 1.562 1.562 2.195 3.462 1.414 4.243l-19.8 19.798zm17.323-22.98c-1.008-1.01-1.914-1.3-2.225-1.312l-5.45 5.45c.013.31.303 1.217 1.31 2.225 1.01 1.008 1.915 1.3 2.226 1.312l5.45-5.45c-.013-.31-.303-1.218-1.31-2.225zM15 6c0-1.657-1.343-3-3-3 1.657 0 3-1.343 3-3 0 1.657 1.343 3 3 3-1.657 0-3 1.343-3 3zm-6 6c0-1.105-.895-2-2-2 1.105 0 2-.895 2-2 0 1.105.895 2 2 2-1.105 0-2 .895-2 2zm17 4c0 1.657 1.343 3 3 3-1.657 0-3 1.343-3 3 0-1.657-1.343-3-3-3 1.657 0 3-1.343 3-3z" class="cls-1" id="artboard-1"/></svg>