<svg xmlns="http://www.w3.org/2000/svg" preserveAspectRatio="xMidYMid" width="30" height="30" viewBox="0 0 30 30"><defs><style>.cls-1 { fill: #354c51; fill-rule: evenodd; }</style></defs><path d="M28.5 9H26v2.5c0 .276-.224.5-.5.5h-1c-.276 0-.5-.224-.5-.5V9h-2.5c-.276 0-.5-.224-.5-.5v-1c0-.276.224-.5.5-.5H24V4.5c0-.276.224-.5.5-.5h1c.276 0 .5.224.5.5V7h2.5c.276 0 .5.224.5.5v1c0 .276-.224.5-.5.5zM19 7.5v1c0 1.38 1.12 2.5 2.5 2.5h.5v.5c0 1.38 1.12 2.5 2.5 2.5h1c.155 0 .306-.02.453-.046.03.345.047.693.047 1.046 0 6.627-5.373 12-12 12S2 21.627 2 15 7.373 3 14 3c2.524 0 4.862.783 6.795 2.113C19.76 5.42 19 6.366 19 7.5zM10.5 12c-.828 0-1.5.672-1.5 1.5s.672 1.5 1.5 1.5 1.5-.672 1.5-1.5-.672-1.5-1.5-1.5zM9 17c0 2.76 2.24 5 5 5s5-2.24 5-5H9zm8.5-5c-.828 0-1.5.672-1.5 1.5s.672 1.5 1.5 1.5 1.5-.672 1.5-1.5-.672-1.5-1.5-1.5z" class="cls-1" id="artboard-1"/></svg>