<svg xmlns="http://www.w3.org/2000/svg" preserveAspectRatio="xMidYMid" width="30" height="30" viewBox="0 0 30 30"><defs><style>.cls-1 { fill: #354c51; fill-rule: evenodd; }</style></defs><path d="M15 27C8.373 27 3 21.627 3 15S8.373 3 15 3s12 5.373 12 12-5.373 12-12 12zm-3.5-15c-.828 0-1.5.672-1.5 1.5s.672 1.5 1.5 1.5 1.5-.672 1.5-1.5-.672-1.5-1.5-1.5zm7 0c-.828 0-1.5.672-1.5 1.5s.672 1.5 1.5 1.5 1.5-.672 1.5-1.5-.672-1.5-1.5-1.5zM10 17c0 2.76 2.24 5 5 5s5-2.24 5-5H10z" class="cls-1" id="artboard-1"/></svg>