<svg xmlns="http://www.w3.org/2000/svg" preserveAspectRatio="xMidYMid" width="30" height="30" viewBox="0 0 30 30"><defs><style>.cls-1 { fill: #354c51; fill-rule: evenodd; }</style></defs><path d="M23 10c-1.108 0-2.11-.45-2.834-1.18L10.858 14c.084.32.142.652.142 1 0 .338-.055.662-.134.976l9.32 5.185C20.905 20.445 21.9 20 23 20c2.21 0 4 1.79 4 4s-1.79 4-4 4-4-1.79-4-4c0-.378.07-.737.168-1.084L9.89 17.754C9.16 18.518 8.14 19 7 19c-2.21 0-4-1.79-4-4s1.79-4 4-4c1.13 0 2.146.473 2.873 1.226L19.16 7.06C19.066 6.72 19 6.37 19 6c0-2.21 1.79-4 4-4s4 1.79 4 4-1.79 4-4 4z" class="cls-1" id="artboard-1"/></svg>