<svg xmlns="http://www.w3.org/2000/svg" preserveAspectRatio="xMidYMid" width="30" height="30" viewBox="0 0 30 30"><defs><style>.cls-1 { fill: #354c51; fill-rule: evenodd; }</style></defs><path d="M26.4 26.425c-.39.39-.902.587-1.413.587-.51 0-1.023-.196-1.413-.587l-5.928-5.947C16.162 21.438 14.398 22 12.5 22 7.253 22 3 17.747 3 12.5S7.253 3 12.5 3 22 7.253 22 12.5c0 1.9-.563 3.664-1.523 5.148L26.4 23.59c.78.783.78 2.052 0 2.835zM12.5 5C8.358 5 5 8.358 5 12.5c0 4.142 3.358 7.5 7.5 7.5 4.142 0 7.5-3.358 7.5-7.5C20 8.358 16.642 5 12.5 5z" class="cls-1" id="artboard-1"/></svg>