<svg xmlns="http://www.w3.org/2000/svg" preserveAspectRatio="xMidYMid" width="30" height="30" viewBox="0 0 30 30"><defs><style>.cls-1 { fill: #354c51; fill-rule: evenodd; }</style></defs><path d="M27.65 6.27l-6.085 7.896c-1.686 2.188-3.69 4.11-5.948 5.702-.276.195-.588.295-.907.35.086-1.15-.3-2.325-1.19-3.204-.854-.84-1.985-1.23-3.104-1.186.06-.288.166-.567.343-.818 1.593-2.258 3.513-4.262 5.7-5.948l7.896-6.084c.905-.698 2.213-.594 3.05.243.837.838.94 2.146.244 3.05zM12.106 24.23C6.762 29.497.524 26.284.332 25.97c3.955 0 3.896-5.58 5.887-7.542 1.624-1.602 4.26-1.602 5.886 0 1.626 1.603 1.626 4.2 0 5.802z" class="cls-1" id="artboard-1"/></svg>